<svg width="16" height="15" viewBox="0 0 16 15" fill="none" xmlns="http://www.w3.org/2000/svg">
<path fill-rule="evenodd" clip-rule="evenodd" d="M6.57495 1.52502C4.29678 1.52502 2.44995 3.37185 2.44995 5.65002C2.44995 7.08829 3.18543 8.35513 4.30431 9.09448C4.95522 9.5246 5.7347 9.77502 6.57495 9.77502C6.91709 9.77502 7.24851 9.73353 7.56487 9.65566C9.36531 9.21247 10.7 7.58618 10.7 5.65002C10.7 5.27229 10.6494 4.90756 10.5551 4.56168C10.0777 2.81103 8.47553 1.52502 6.57495 1.52502ZM0.949951 5.65002C0.949951 2.54342 3.46835 0.0250244 6.57495 0.0250244C9.04807 0.0250244 11.1468 1.62047 11.9012 3.83711L14.3354 5.05421C14.5312 5.15212 14.6745 5.33072 14.7276 5.54313L15.4776 8.54313C15.5324 8.76223 15.4855 8.99435 15.35 9.17503L13.1 12.175C12.9583 12.3639 12.736 12.475 12.5 12.475H10.0539C9.45888 13.7589 8.15923 14.65 6.64993 14.65C4.57887 14.65 2.89993 12.9711 2.89993 10.9C2.89993 10.5904 2.93761 10.2889 3.00876 10.0002C1.75293 8.96949 0.949951 7.40367 0.949951 5.65002ZM4.40074 10.8392C4.4002 10.8594 4.39993 10.8797 4.39993 10.9C4.39993 12.1427 5.40729 13.15 6.64993 13.15C7.33275 13.15 7.94532 12.8456 8.35824 12.3646C8.27848 12.3158 8.20756 12.2518 8.14997 12.175L7.42682 11.2108C7.14869 11.2531 6.86418 11.275 6.57495 11.275C5.80489 11.275 5.07003 11.1199 4.40074 10.8392ZM8.95473 10.748L9.12497 10.975H12.125L13.9358 8.56061L13.356 6.24158L12.1999 5.66354C12.1946 7.91445 10.8678 9.85353 8.95473 10.748ZM6.49997 2.87503C6.77235 2.87503 7.02331 3.0227 7.15559 3.26079L9.03059 6.63579C9.15964 6.86809 9.15614 7.15134 9.02137 7.38037C8.88661 7.60941 8.64071 7.75003 8.37497 7.75003L4.62497 7.75003C4.35923 7.75003 4.11333 7.60941 3.97857 7.38037C3.8438 7.15134 3.8403 6.86809 3.96935 6.63579L5.84435 3.26079C5.97663 3.0227 6.22759 2.87503 6.49997 2.87503ZM5.89961 6.25003H7.10033L6.49997 5.16937L5.89961 6.25003Z" fill="white"/>
</svg>
