<svg width="18" height="16" viewBox="0 0 18 16" fill="none" xmlns="http://www.w3.org/2000/svg">
<path fill-rule="evenodd" clip-rule="evenodd" d="M12.9856 11.7901L9.69014 6.54878L9.69014 3.69232L15.5907 13.5269L12.9856 11.7901ZM5.74857 12.948H12.2253L14.3277 14.3495L3.29582 14.3495L5.74857 12.948ZM8.30519 6.54878L5.02493 11.7659L2.64489 13.1259L8.30519 3.69232L8.30519 6.54878ZM8.99767 8.05007L11.2074 11.563H6.78867L8.99767 8.05007ZM17.9015 14.6854L9.59181 0.835851C9.56965 0.799842 9.54057 0.770758 9.51287 0.740289C9.38615 0.595562 9.20541 0.5 8.99767 0.5C8.78993 0.5 8.60988 0.595562 8.48247 0.740289C8.45477 0.770758 8.42568 0.79915 8.40422 0.835851L0.0944987 14.6854C0.0619523 14.7401 0.0377156 14.7983 0.0210962 14.8578C0.0197112 14.862 0.0197112 14.8661 0.0190188 14.8703C0.000321892 14.943 -0.00314049 15.0178 0.00239932 15.0926C0.00447675 15.1133 0.00655418 15.1327 0.0100166 15.1535C0.0224811 15.2324 0.0446404 15.3107 0.0854965 15.3827C0.086189 15.3834 0.086189 15.3834 0.086189 15.3841C0.0868814 15.3848 0.0868815 15.3848 0.0868815 15.3855C0.0986535 15.4056 0.114581 15.4201 0.127738 15.4388C0.150589 15.47 0.171364 15.5039 0.19837 15.5309C0.224684 15.5572 0.255153 15.5766 0.28493 15.5988C0.305012 15.6126 0.321631 15.6292 0.341713 15.641C0.374259 15.6597 0.408883 15.6708 0.443507 15.6839C0.465666 15.6922 0.485748 15.704 0.5086 15.7102C0.560535 15.7241 0.613856 15.7296 0.667177 15.7317C0.674794 15.7317 0.681026 15.7345 0.687951 15.7345L17.3074 15.7345C17.5574 15.7345 17.7873 15.6001 17.9098 15.3827C18.0331 15.166 18.0296 14.8994 17.9015 14.6854Z" fill="#495057"/>
</svg>
